<mxfile host="app.diagrams.net" agent="Mozilla/5.0 (Windows NT 10.0; Win64; x64) AppleWebKit/537.36 (KHTML, like Gecko) Chrome/140.0.0.0 Safari/537.36" version="28.2.5">
  <diagram id="ALQOVI4VdYn_M0BtnCwg" name="Page-1">
    <mxGraphModel dx="2037" dy="1061" grid="1" gridSize="10" guides="1" tooltips="1" connect="1" arrows="1" fold="1" page="1" pageScale="1" pageWidth="1700" pageHeight="1100" math="0" shadow="0">
      <root>
        <mxCell id="0" />
        <mxCell id="1" parent="0" />
        <mxCell id="ouIHbSd3Nk1nx9mMRl5I-9" style="rounded=0;orthogonalLoop=1;jettySize=auto;html=1;exitX=0.5;exitY=1;exitDx=0;exitDy=0;entryX=0.75;entryY=0;entryDx=0;entryDy=0;" parent="1" source="P1E9ui0Sz6Qfr13VZz1R-2" target="P1E9ui0Sz6Qfr13VZz1R-4" edge="1">
          <mxGeometry relative="1" as="geometry" />
        </mxCell>
        <mxCell id="ouIHbSd3Nk1nx9mMRl5I-10" style="rounded=0;orthogonalLoop=1;jettySize=auto;html=1;exitX=0.5;exitY=1;exitDx=0;exitDy=0;entryX=0.25;entryY=0;entryDx=0;entryDy=0;" parent="1" source="P1E9ui0Sz6Qfr13VZz1R-2" target="P1E9ui0Sz6Qfr13VZz1R-8" edge="1">
          <mxGeometry relative="1" as="geometry" />
        </mxCell>
        <mxCell id="P1E9ui0Sz6Qfr13VZz1R-2" value="SQL Query" style="rounded=1;whiteSpace=wrap;html=1;fillColor=#dae8fc;strokeColor=#6c8ebf;" parent="1" vertex="1">
          <mxGeometry x="430" y="320" width="120" height="60" as="geometry" />
        </mxCell>
        <mxCell id="R9tuTI-LuhKUseB_a6Fk-46" style="rounded=0;orthogonalLoop=1;jettySize=auto;html=1;exitX=0.5;exitY=1;exitDx=0;exitDy=0;entryX=0;entryY=0;entryDx=0;entryDy=0;" parent="1" source="P1E9ui0Sz6Qfr13VZz1R-4" target="P1E9ui0Sz6Qfr13VZz1R-14" edge="1">
          <mxGeometry relative="1" as="geometry" />
        </mxCell>
        <mxCell id="P1E9ui0Sz6Qfr13VZz1R-4" value="Guardicore Data:&lt;br&gt;&lt;font style=&quot;font-size: 11px;&quot;&gt;Postgres DB&lt;/font&gt;" style="rounded=1;whiteSpace=wrap;html=1;fillColor=light-dark(#B5F994,#B5F994);strokeColor=light-dark(#3FBE00,#FEC400);" parent="1" vertex="1">
          <mxGeometry x="350" y="420" width="120" height="60" as="geometry" />
        </mxCell>
        <mxCell id="R9tuTI-LuhKUseB_a6Fk-47" style="rounded=0;orthogonalLoop=1;jettySize=auto;html=1;exitX=0.5;exitY=1;exitDx=0;exitDy=0;entryX=1;entryY=0;entryDx=0;entryDy=0;" parent="1" source="P1E9ui0Sz6Qfr13VZz1R-8" target="P1E9ui0Sz6Qfr13VZz1R-14" edge="1">
          <mxGeometry relative="1" as="geometry" />
        </mxCell>
        <mxCell id="P1E9ui0Sz6Qfr13VZz1R-8" value="Palo Alto Data:&lt;br&gt;&lt;font style=&quot;font-size: 11px;&quot;&gt;Firemon&lt;/font&gt;" style="rounded=1;whiteSpace=wrap;html=1;fillColor=#f8cecc;strokeColor=#b85450;" parent="1" vertex="1">
          <mxGeometry x="510" y="420" width="120" height="60" as="geometry" />
        </mxCell>
        <mxCell id="ouIHbSd3Nk1nx9mMRl5I-13" style="edgeStyle=orthogonalEdgeStyle;rounded=0;orthogonalLoop=1;jettySize=auto;html=1;exitX=1;exitY=0.5;exitDx=0;exitDy=0;entryX=0;entryY=0.5;entryDx=0;entryDy=0;" parent="1" source="P1E9ui0Sz6Qfr13VZz1R-6" target="P1E9ui0Sz6Qfr13VZz1R-4" edge="1">
          <mxGeometry relative="1" as="geometry">
            <Array as="points">
              <mxPoint x="290" y="380" />
              <mxPoint x="290" y="450" />
            </Array>
          </mxGeometry>
        </mxCell>
        <mxCell id="ouIHbSd3Nk1nx9mMRl5I-14" value="API Update&lt;div&gt;Daily&lt;/div&gt;" style="edgeLabel;html=1;align=center;verticalAlign=middle;resizable=0;points=[];labelBackgroundColor=light-dark(#B5F994,#B5F994);" parent="ouIHbSd3Nk1nx9mMRl5I-13" vertex="1" connectable="0">
          <mxGeometry x="0.03" y="-1" relative="1" as="geometry">
            <mxPoint as="offset" />
          </mxGeometry>
        </mxCell>
        <mxCell id="P1E9ui0Sz6Qfr13VZz1R-6" value="Guardicore" style="rounded=1;whiteSpace=wrap;html=1;fillColor=#f8cecc;strokeColor=#b85450;" parent="1" vertex="1">
          <mxGeometry x="110" y="350" width="120" height="60" as="geometry" />
        </mxCell>
        <mxCell id="ouIHbSd3Nk1nx9mMRl5I-11" style="edgeStyle=orthogonalEdgeStyle;rounded=0;orthogonalLoop=1;jettySize=auto;html=1;exitX=0;exitY=0.5;exitDx=0;exitDy=0;entryX=1;entryY=0.5;entryDx=0;entryDy=0;" parent="1" source="P1E9ui0Sz6Qfr13VZz1R-10" target="P1E9ui0Sz6Qfr13VZz1R-8" edge="1">
          <mxGeometry relative="1" as="geometry">
            <Array as="points">
              <mxPoint x="690" y="380" />
              <mxPoint x="690" y="450" />
            </Array>
          </mxGeometry>
        </mxCell>
        <mxCell id="ouIHbSd3Nk1nx9mMRl5I-12" value="API Update&lt;div&gt;on Change&lt;/div&gt;" style="edgeLabel;html=1;align=center;verticalAlign=middle;resizable=0;points=[];" parent="ouIHbSd3Nk1nx9mMRl5I-11" vertex="1" connectable="0">
          <mxGeometry x="-0.0231" y="-1" relative="1" as="geometry">
            <mxPoint x="1" y="-2" as="offset" />
          </mxGeometry>
        </mxCell>
        <mxCell id="P1E9ui0Sz6Qfr13VZz1R-10" value="Palo Alto Firewall" style="rounded=1;whiteSpace=wrap;html=1;fillColor=#f8cecc;strokeColor=#b85450;" parent="1" vertex="1">
          <mxGeometry x="750" y="350" width="110" height="60" as="geometry" />
        </mxCell>
        <mxCell id="P1E9ui0Sz6Qfr13VZz1R-21" value="" style="edgeStyle=orthogonalEdgeStyle;rounded=0;orthogonalLoop=1;jettySize=auto;html=1;" parent="1" source="P1E9ui0Sz6Qfr13VZz1R-15" target="P1E9ui0Sz6Qfr13VZz1R-20" edge="1">
          <mxGeometry relative="1" as="geometry" />
        </mxCell>
        <mxCell id="ouIHbSd3Nk1nx9mMRl5I-16" style="edgeStyle=orthogonalEdgeStyle;rounded=0;orthogonalLoop=1;jettySize=auto;html=1;exitX=0.5;exitY=1;exitDx=0;exitDy=0;entryX=0.5;entryY=0;entryDx=0;entryDy=0;" parent="1" source="P1E9ui0Sz6Qfr13VZz1R-15" target="P1E9ui0Sz6Qfr13VZz1R-17" edge="1">
          <mxGeometry relative="1" as="geometry" />
        </mxCell>
        <mxCell id="P1E9ui0Sz6Qfr13VZz1R-15" value="Open Standard Change" style="rounded=1;whiteSpace=wrap;html=1;fillColor=#dae8fc;strokeColor=#6c8ebf;" parent="1" vertex="1">
          <mxGeometry x="630" y="600" width="120" height="60" as="geometry" />
        </mxCell>
        <mxCell id="P1E9ui0Sz6Qfr13VZz1R-23" value="" style="edgeStyle=orthogonalEdgeStyle;rounded=0;orthogonalLoop=1;jettySize=auto;html=1;" parent="1" source="P1E9ui0Sz6Qfr13VZz1R-20" target="P1E9ui0Sz6Qfr13VZz1R-22" edge="1">
          <mxGeometry relative="1" as="geometry" />
        </mxCell>
        <mxCell id="R9tuTI-LuhKUseB_a6Fk-7" style="edgeStyle=orthogonalEdgeStyle;rounded=0;orthogonalLoop=1;jettySize=auto;html=1;exitX=1;exitY=0.5;exitDx=0;exitDy=0;entryX=0;entryY=0.5;entryDx=0;entryDy=0;" parent="1" source="P1E9ui0Sz6Qfr13VZz1R-20" target="P1E9ui0Sz6Qfr13VZz1R-24" edge="1">
          <mxGeometry relative="1" as="geometry" />
        </mxCell>
        <mxCell id="P1E9ui0Sz6Qfr13VZz1R-20" value="Perform Change" style="rounded=1;whiteSpace=wrap;html=1;fillColor=#dae8fc;strokeColor=#6c8ebf;" parent="1" vertex="1">
          <mxGeometry x="790" y="600" width="120" height="60" as="geometry" />
        </mxCell>
        <mxCell id="R9tuTI-LuhKUseB_a6Fk-8" style="edgeStyle=orthogonalEdgeStyle;rounded=0;orthogonalLoop=1;jettySize=auto;html=1;exitX=0.5;exitY=1;exitDx=0;exitDy=0;entryX=0.5;entryY=0;entryDx=0;entryDy=0;" parent="1" source="P1E9ui0Sz6Qfr13VZz1R-22" target="P1E9ui0Sz6Qfr13VZz1R-53" edge="1">
          <mxGeometry relative="1" as="geometry" />
        </mxCell>
        <mxCell id="R9tuTI-LuhKUseB_a6Fk-12" style="edgeStyle=orthogonalEdgeStyle;rounded=0;orthogonalLoop=1;jettySize=auto;html=1;exitX=0.5;exitY=0;exitDx=0;exitDy=0;entryX=0.5;entryY=1;entryDx=0;entryDy=0;" parent="1" source="P1E9ui0Sz6Qfr13VZz1R-22" target="P1E9ui0Sz6Qfr13VZz1R-20" edge="1">
          <mxGeometry relative="1" as="geometry" />
        </mxCell>
        <mxCell id="P1E9ui0Sz6Qfr13VZz1R-22" value="Guardicore&lt;div&gt;&amp;amp;&lt;br&gt;&lt;div&gt;Panorama(s)&lt;/div&gt;&lt;/div&gt;" style="rounded=1;whiteSpace=wrap;html=1;fillColor=#f8cecc;strokeColor=#b85450;align=center;" parent="1" vertex="1">
          <mxGeometry x="790" y="690" width="120" height="60" as="geometry" />
        </mxCell>
        <mxCell id="P1E9ui0Sz6Qfr13VZz1R-53" value="Panorama Pushes changes to Firewall at 7pm M-F" style="rounded=1;whiteSpace=wrap;html=1;fillColor=#f8cecc;strokeColor=#b85450;align=left;" parent="1" vertex="1">
          <mxGeometry x="790" y="780" width="120" height="60" as="geometry" />
        </mxCell>
        <mxCell id="P1E9ui0Sz6Qfr13VZz1R-62" style="edgeStyle=orthogonalEdgeStyle;rounded=0;orthogonalLoop=1;jettySize=auto;html=1;" parent="1" source="P1E9ui0Sz6Qfr13VZz1R-24" edge="1">
          <mxGeometry relative="1" as="geometry">
            <mxPoint x="1110" y="630" as="targetPoint" />
          </mxGeometry>
        </mxCell>
        <mxCell id="R9tuTI-LuhKUseB_a6Fk-14" style="edgeStyle=orthogonalEdgeStyle;rounded=0;orthogonalLoop=1;jettySize=auto;html=1;exitX=0.5;exitY=1;exitDx=0;exitDy=0;entryX=0.5;entryY=0;entryDx=0;entryDy=0;" parent="1" source="P1E9ui0Sz6Qfr13VZz1R-24" target="R9tuTI-LuhKUseB_a6Fk-13" edge="1">
          <mxGeometry relative="1" as="geometry" />
        </mxCell>
        <mxCell id="P1E9ui0Sz6Qfr13VZz1R-24" value="Attach Result File to Service Now" style="rounded=1;whiteSpace=wrap;html=1;fillColor=#dae8fc;strokeColor=#6c8ebf;align=center;" parent="1" vertex="1">
          <mxGeometry x="950" y="600" width="120" height="60" as="geometry" />
        </mxCell>
        <mxCell id="P1E9ui0Sz6Qfr13VZz1R-29" value="" style="edgeStyle=orthogonalEdgeStyle;rounded=0;orthogonalLoop=1;jettySize=auto;html=1;" parent="1" edge="1">
          <mxGeometry relative="1" as="geometry">
            <mxPoint x="1170.0588235294122" y="660" as="sourcePoint" />
            <mxPoint x="1170.0588235294122" y="690" as="targetPoint" />
          </mxGeometry>
        </mxCell>
        <mxCell id="P1E9ui0Sz6Qfr13VZz1R-18" style="edgeStyle=orthogonalEdgeStyle;rounded=0;orthogonalLoop=1;jettySize=auto;html=1;entryX=0.5;entryY=1;entryDx=0;entryDy=0;" parent="1" source="P1E9ui0Sz6Qfr13VZz1R-17" target="P1E9ui0Sz6Qfr13VZz1R-15" edge="1">
          <mxGeometry relative="1" as="geometry" />
        </mxCell>
        <mxCell id="P1E9ui0Sz6Qfr13VZz1R-17" value="ServiceNow" style="rounded=1;whiteSpace=wrap;html=1;fillColor=#f8cecc;strokeColor=#b85450;" parent="1" vertex="1">
          <mxGeometry x="630" y="690" width="120" height="60" as="geometry" />
        </mxCell>
        <mxCell id="R9tuTI-LuhKUseB_a6Fk-18" style="edgeStyle=orthogonalEdgeStyle;rounded=0;orthogonalLoop=1;jettySize=auto;html=1;exitX=0.5;exitY=0;exitDx=0;exitDy=0;" parent="1" source="P1E9ui0Sz6Qfr13VZz1R-30" edge="1">
          <mxGeometry relative="1" as="geometry">
            <mxPoint x="1170.294117647059" y="660" as="targetPoint" />
          </mxGeometry>
        </mxCell>
        <mxCell id="P1E9ui0Sz6Qfr13VZz1R-30" value="ServiceNow" style="rounded=1;whiteSpace=wrap;html=1;fillColor=#f8cecc;strokeColor=#b85450;" parent="1" vertex="1">
          <mxGeometry x="1110" y="690" width="120" height="60" as="geometry" />
        </mxCell>
        <mxCell id="P1E9ui0Sz6Qfr13VZz1R-38" value="" style="edgeStyle=orthogonalEdgeStyle;rounded=0;orthogonalLoop=1;jettySize=auto;html=1;" parent="1" source="P1E9ui0Sz6Qfr13VZz1R-36" target="P1E9ui0Sz6Qfr13VZz1R-37" edge="1">
          <mxGeometry relative="1" as="geometry" />
        </mxCell>
        <mxCell id="P1E9ui0Sz6Qfr13VZz1R-36" value="ServiceNow:&lt;br&gt;User Submits Server Decommission Request" style="rounded=1;whiteSpace=wrap;html=1;fillColor=#f8cecc;strokeColor=#b85450;align=left;" parent="1" vertex="1">
          <mxGeometry x="40" y="20" width="130" height="60" as="geometry" />
        </mxCell>
        <mxCell id="P1E9ui0Sz6Qfr13VZz1R-40" value="&lt;span style=&quot;background-color: rgb(218, 232, 252);&quot;&gt;Server&lt;/span&gt;&lt;div&gt;&lt;span style=&quot;background-color: rgb(218, 232, 252);&quot;&gt;Data&lt;/span&gt;&lt;div&gt;&lt;span style=&quot;background-color: rgb(218, 232, 252);&quot;&gt;&amp;nbsp;Payload&lt;/span&gt;&lt;/div&gt;&lt;/div&gt;" style="edgeStyle=orthogonalEdgeStyle;rounded=0;orthogonalLoop=1;jettySize=auto;html=1;" parent="1" source="P1E9ui0Sz6Qfr13VZz1R-37" target="P1E9ui0Sz6Qfr13VZz1R-39" edge="1">
          <mxGeometry relative="1" as="geometry" />
        </mxCell>
        <mxCell id="P1E9ui0Sz6Qfr13VZz1R-37" value="ServiceNow:&lt;br&gt;Firewall task is generated" style="rounded=1;whiteSpace=wrap;html=1;fillColor=#f8cecc;strokeColor=#b85450;align=left;" parent="1" vertex="1">
          <mxGeometry x="200" y="20" width="135" height="60" as="geometry" />
        </mxCell>
        <mxCell id="P1E9ui0Sz6Qfr13VZz1R-42" value="" style="edgeStyle=orthogonalEdgeStyle;rounded=0;orthogonalLoop=1;jettySize=auto;html=1;" parent="1" source="P1E9ui0Sz6Qfr13VZz1R-39" target="P1E9ui0Sz6Qfr13VZz1R-41" edge="1">
          <mxGeometry relative="1" as="geometry" />
        </mxCell>
        <mxCell id="P1E9ui0Sz6Qfr13VZz1R-39" value="Ansible Tower" style="rounded=1;whiteSpace=wrap;html=1;fillColor=#f8cecc;strokeColor=#b85450;" parent="1" vertex="1">
          <mxGeometry x="430" y="20" width="120" height="60" as="geometry" />
        </mxCell>
        <mxCell id="P1E9ui0Sz6Qfr13VZz1R-44" value="" style="edgeStyle=orthogonalEdgeStyle;rounded=0;orthogonalLoop=1;jettySize=auto;html=1;" parent="1" source="P1E9ui0Sz6Qfr13VZz1R-41" target="P1E9ui0Sz6Qfr13VZz1R-43" edge="1">
          <mxGeometry relative="1" as="geometry" />
        </mxCell>
        <mxCell id="P1E9ui0Sz6Qfr13VZz1R-41" value="&amp;nbsp;Decom&lt;br&gt;Playbook" style="rounded=1;whiteSpace=wrap;html=1;fillColor=#dae8fc;strokeColor=#6c8ebf;" parent="1" vertex="1">
          <mxGeometry x="430" y="120" width="120" height="60" as="geometry" />
        </mxCell>
        <mxCell id="P1E9ui0Sz6Qfr13VZz1R-55" style="edgeStyle=orthogonalEdgeStyle;rounded=0;orthogonalLoop=1;jettySize=auto;html=1;" parent="1" source="P1E9ui0Sz6Qfr13VZz1R-43" target="P1E9ui0Sz6Qfr13VZz1R-2" edge="1">
          <mxGeometry relative="1" as="geometry" />
        </mxCell>
        <mxCell id="P1E9ui0Sz6Qfr13VZz1R-43" value="Executes Python&amp;nbsp;&lt;br&gt;Program" style="rounded=1;whiteSpace=wrap;html=1;fillColor=#dae8fc;strokeColor=#6c8ebf;" parent="1" vertex="1">
          <mxGeometry x="430" y="220" width="120" height="60" as="geometry" />
        </mxCell>
        <mxCell id="P1E9ui0Sz6Qfr13VZz1R-48" value="&lt;h1&gt;&lt;font style=&quot;color: rgb(0, 0, 0);&quot;&gt;&lt;span style=&quot;font-weight: normal;&quot;&gt;&lt;u&gt;Rule Lifecycle Automation&lt;/u&gt;&lt;/span&gt;&lt;br&gt;Object Decommission - Remove Server (address) Object From Firewall&lt;/font&gt;&lt;/h1&gt;&lt;p&gt;&lt;font style=&quot;color: rgb(0, 0, 0);&quot;&gt;The flow diagram outlines the firewall portion of the server decommission process to remove server network access.&lt;/font&gt;&lt;/p&gt;&lt;p&gt;&lt;font style=&quot;color: rgb(0, 0, 0);&quot;&gt;Rule Lifecycle Tags: Unused, Cleanup&lt;/font&gt;&lt;/p&gt;&lt;p&gt;&lt;font style=&quot;color: rgb(0, 0, 0);&quot;&gt;Policy Interactions Include:&amp;nbsp;&lt;br&gt;&lt;/font&gt;&lt;span style=&quot;color: light-dark(rgb(0, 0, 0), rgb(237, 237, 237)); background-color: transparent;&quot;&gt;&lt;span style=&quot;white-space: pre;&quot;&gt;&#x9;&lt;/span&gt;Address Object Deletion&amp;nbsp;&lt;br&gt;&lt;/span&gt;&lt;span style=&quot;color: light-dark(rgb(0, 0, 0), rgb(237, 237, 237)); background-color: transparent;&quot;&gt;&lt;span style=&quot;white-space: pre;&quot;&gt;&#x9;&lt;/span&gt;Address&amp;nbsp;Group Edit&lt;br&gt;&lt;/span&gt;&lt;span style=&quot;color: light-dark(rgb(0, 0, 0), rgb(237, 237, 237)); background-color: transparent;&quot;&gt;&lt;span style=&quot;white-space: pre;&quot;&gt;&#x9;&lt;/span&gt;Address&amp;nbsp;Group Deletion&lt;br&gt;&lt;/span&gt;&lt;span style=&quot;color: light-dark(rgb(0, 0, 0), rgb(237, 237, 237)); background-color: transparent;&quot;&gt;&lt;span style=&quot;white-space: pre;&quot;&gt;&#x9;&lt;/span&gt;Rule Edit&lt;br&gt;&lt;/span&gt;&lt;span style=&quot;color: light-dark(rgb(0, 0, 0), rgb(237, 237, 237)); background-color: transparent;&quot;&gt;&lt;span style=&quot;white-space: pre;&quot;&gt;&#x9;&lt;/span&gt;Rule Deletion&lt;br&gt;&lt;/span&gt;&lt;/p&gt;" style="text;html=1;strokeColor=#006EAF;fillColor=#DAE8FC;spacing=5;spacingTop=-20;whiteSpace=wrap;overflow=hidden;rounded=0;fontColor=#ffffff;" parent="1" vertex="1">
          <mxGeometry x="710" y="20" width="840" height="230" as="geometry" />
        </mxCell>
        <mxCell id="R9tuTI-LuhKUseB_a6Fk-44" style="rounded=0;orthogonalLoop=1;jettySize=auto;html=1;exitX=1;exitY=1;exitDx=0;exitDy=0;entryX=0;entryY=0;entryDx=0;entryDy=0;" parent="1" source="P1E9ui0Sz6Qfr13VZz1R-14" target="R9tuTI-LuhKUseB_a6Fk-42" edge="1">
          <mxGeometry relative="1" as="geometry" />
        </mxCell>
        <mxCell id="R9tuTI-LuhKUseB_a6Fk-45" style="rounded=0;orthogonalLoop=1;jettySize=auto;html=1;exitX=0;exitY=1;exitDx=0;exitDy=0;entryX=1;entryY=0;entryDx=0;entryDy=0;" parent="1" source="P1E9ui0Sz6Qfr13VZz1R-14" target="R9tuTI-LuhKUseB_a6Fk-43" edge="1">
          <mxGeometry relative="1" as="geometry" />
        </mxCell>
        <mxCell id="P1E9ui0Sz6Qfr13VZz1R-14" value="If Found" style="rhombus;whiteSpace=wrap;html=1;fillColor=#dae8fc;strokeColor=#6c8ebf;" parent="1" vertex="1">
          <mxGeometry x="450" y="520" width="80" height="80" as="geometry" />
        </mxCell>
        <mxCell id="ouIHbSd3Nk1nx9mMRl5I-19" value="&lt;u&gt;Key&lt;/u&gt;&lt;br&gt;&lt;div style=&quot;&quot;&gt;&lt;span style=&quot;background-color: initial;&quot;&gt;Blue - Primary Application&lt;/span&gt;&lt;/div&gt;&lt;div&gt;&lt;span style=&quot;background-color: initial;&quot;&gt;Red - Existing systems primary application &lt;span style=&quot;white-space: pre;&quot;&gt;&#x9;&lt;/span&gt;&amp;nbsp; has integrated with.&lt;/span&gt;&lt;/div&gt;&lt;div&gt;&lt;span style=&quot;background-color: initial;&quot;&gt;Green - New supporting automation/system&lt;/span&gt;&lt;/div&gt;" style="rounded=0;whiteSpace=wrap;html=1;align=left;" parent="1" vertex="1">
          <mxGeometry x="40" y="130" width="240" height="90" as="geometry" />
        </mxCell>
        <mxCell id="R9tuTI-LuhKUseB_a6Fk-17" style="edgeStyle=orthogonalEdgeStyle;rounded=0;orthogonalLoop=1;jettySize=auto;html=1;exitX=0.5;exitY=0;exitDx=0;exitDy=0;" parent="1" source="R9tuTI-LuhKUseB_a6Fk-13" edge="1">
          <mxGeometry relative="1" as="geometry">
            <mxPoint x="1010.294117647059" y="660" as="targetPoint" />
          </mxGeometry>
        </mxCell>
        <mxCell id="R9tuTI-LuhKUseB_a6Fk-13" value="ServiceNow" style="rounded=1;whiteSpace=wrap;html=1;fillColor=#f8cecc;strokeColor=#b85450;" parent="1" vertex="1">
          <mxGeometry x="950" y="690" width="120" height="60" as="geometry" />
        </mxCell>
        <mxCell id="R9tuTI-LuhKUseB_a6Fk-25" style="edgeStyle=orthogonalEdgeStyle;rounded=0;orthogonalLoop=1;jettySize=auto;html=1;exitX=1;exitY=0.5;exitDx=0;exitDy=0;entryX=0;entryY=0.5;entryDx=0;entryDy=0;" parent="1" source="R9tuTI-LuhKUseB_a6Fk-15" target="R9tuTI-LuhKUseB_a6Fk-21" edge="1">
          <mxGeometry relative="1" as="geometry" />
        </mxCell>
        <mxCell id="R9tuTI-LuhKUseB_a6Fk-15" value="Close Change" style="rounded=1;whiteSpace=wrap;html=1;fillColor=#dae8fc;strokeColor=#6c8ebf;align=center;" parent="1" vertex="1">
          <mxGeometry x="1110" y="600" width="120" height="60" as="geometry" />
        </mxCell>
        <mxCell id="R9tuTI-LuhKUseB_a6Fk-29" style="rounded=0;orthogonalLoop=1;jettySize=auto;html=1;exitX=1;exitY=0;exitDx=0;exitDy=0;entryX=0;entryY=1;entryDx=0;entryDy=0;" parent="1" source="R9tuTI-LuhKUseB_a6Fk-21" target="R9tuTI-LuhKUseB_a6Fk-26" edge="1">
          <mxGeometry relative="1" as="geometry" />
        </mxCell>
        <mxCell id="R9tuTI-LuhKUseB_a6Fk-30" style="rounded=0;orthogonalLoop=1;jettySize=auto;html=1;exitX=1;exitY=1;exitDx=0;exitDy=0;entryX=0;entryY=0;entryDx=0;entryDy=0;" parent="1" source="R9tuTI-LuhKUseB_a6Fk-21" target="R9tuTI-LuhKUseB_a6Fk-28" edge="1">
          <mxGeometry relative="1" as="geometry" />
        </mxCell>
        <mxCell id="R9tuTI-LuhKUseB_a6Fk-21" value="If Issues" style="rhombus;whiteSpace=wrap;html=1;fillColor=#dae8fc;strokeColor=#6c8ebf;" parent="1" vertex="1">
          <mxGeometry x="1270" y="590" width="80" height="80" as="geometry" />
        </mxCell>
        <mxCell id="R9tuTI-LuhKUseB_a6Fk-33" style="edgeStyle=orthogonalEdgeStyle;rounded=0;orthogonalLoop=1;jettySize=auto;html=1;exitX=1;exitY=0.5;exitDx=0;exitDy=0;entryX=0;entryY=0.5;entryDx=0;entryDy=0;" parent="1" source="R9tuTI-LuhKUseB_a6Fk-26" target="R9tuTI-LuhKUseB_a6Fk-32" edge="1">
          <mxGeometry relative="1" as="geometry" />
        </mxCell>
        <mxCell id="R9tuTI-LuhKUseB_a6Fk-26" value="Yes" style="ellipse;whiteSpace=wrap;html=1;fillColor=#dae8fc;strokeColor=#6c8ebf;" parent="1" vertex="1">
          <mxGeometry x="1350" y="530" width="60" height="40" as="geometry" />
        </mxCell>
        <mxCell id="R9tuTI-LuhKUseB_a6Fk-35" style="edgeStyle=orthogonalEdgeStyle;rounded=0;orthogonalLoop=1;jettySize=auto;html=1;exitX=1;exitY=0.5;exitDx=0;exitDy=0;entryX=0;entryY=0.5;entryDx=0;entryDy=0;" parent="1" source="R9tuTI-LuhKUseB_a6Fk-28" target="R9tuTI-LuhKUseB_a6Fk-34" edge="1">
          <mxGeometry relative="1" as="geometry" />
        </mxCell>
        <mxCell id="R9tuTI-LuhKUseB_a6Fk-28" value="No" style="ellipse;whiteSpace=wrap;html=1;fillColor=#dae8fc;strokeColor=#6c8ebf;" parent="1" vertex="1">
          <mxGeometry x="1350" y="690" width="60" height="40" as="geometry" />
        </mxCell>
        <mxCell id="R9tuTI-LuhKUseB_a6Fk-39" style="edgeStyle=orthogonalEdgeStyle;rounded=0;orthogonalLoop=1;jettySize=auto;html=1;exitX=0.5;exitY=0;exitDx=0;exitDy=0;entryX=0.5;entryY=1;entryDx=0;entryDy=0;" parent="1" source="R9tuTI-LuhKUseB_a6Fk-32" target="R9tuTI-LuhKUseB_a6Fk-38" edge="1">
          <mxGeometry relative="1" as="geometry" />
        </mxCell>
        <mxCell id="R9tuTI-LuhKUseB_a6Fk-32" value="Email" style="rounded=1;whiteSpace=wrap;html=1;fillColor=#dae8fc;strokeColor=#6c8ebf;align=center;" parent="1" vertex="1">
          <mxGeometry x="1450" y="530" width="80" height="40" as="geometry" />
        </mxCell>
        <mxCell id="R9tuTI-LuhKUseB_a6Fk-37" style="edgeStyle=orthogonalEdgeStyle;rounded=0;orthogonalLoop=1;jettySize=auto;html=1;exitX=0.5;exitY=1;exitDx=0;exitDy=0;entryX=0.5;entryY=0;entryDx=0;entryDy=0;" parent="1" source="R9tuTI-LuhKUseB_a6Fk-34" target="R9tuTI-LuhKUseB_a6Fk-36" edge="1">
          <mxGeometry relative="1" as="geometry" />
        </mxCell>
        <mxCell id="R9tuTI-LuhKUseB_a6Fk-34" value="Close Task" style="rounded=1;whiteSpace=wrap;html=1;fillColor=#dae8fc;strokeColor=#6c8ebf;align=center;" parent="1" vertex="1">
          <mxGeometry x="1450" y="690" width="80" height="40" as="geometry" />
        </mxCell>
        <mxCell id="R9tuTI-LuhKUseB_a6Fk-36" value="ServiceNow" style="rounded=1;whiteSpace=wrap;html=1;fillColor=#f8cecc;strokeColor=#b85450;" parent="1" vertex="1">
          <mxGeometry x="1430" y="770" width="120" height="60" as="geometry" />
        </mxCell>
        <mxCell id="R9tuTI-LuhKUseB_a6Fk-38" value="Enterprise Email" style="rounded=1;whiteSpace=wrap;html=1;fillColor=#f8cecc;strokeColor=#b85450;" parent="1" vertex="1">
          <mxGeometry x="1430" y="430" width="120" height="60" as="geometry" />
        </mxCell>
        <mxCell id="R9tuTI-LuhKUseB_a6Fk-52" style="edgeStyle=orthogonalEdgeStyle;rounded=0;orthogonalLoop=1;jettySize=auto;html=1;exitX=1;exitY=0.5;exitDx=0;exitDy=0;entryX=0;entryY=0.5;entryDx=0;entryDy=0;" parent="1" source="R9tuTI-LuhKUseB_a6Fk-42" target="P1E9ui0Sz6Qfr13VZz1R-15" edge="1">
          <mxGeometry relative="1" as="geometry" />
        </mxCell>
        <mxCell id="R9tuTI-LuhKUseB_a6Fk-42" value="Yes" style="ellipse;whiteSpace=wrap;html=1;fillColor=#dae8fc;strokeColor=#6c8ebf;" parent="1" vertex="1">
          <mxGeometry x="530" y="610" width="60" height="40" as="geometry" />
        </mxCell>
        <mxCell id="R9tuTI-LuhKUseB_a6Fk-49" style="edgeStyle=orthogonalEdgeStyle;rounded=0;orthogonalLoop=1;jettySize=auto;html=1;exitX=0;exitY=0.5;exitDx=0;exitDy=0;entryX=1;entryY=0.5;entryDx=0;entryDy=0;" parent="1" source="R9tuTI-LuhKUseB_a6Fk-43" target="R9tuTI-LuhKUseB_a6Fk-48" edge="1">
          <mxGeometry relative="1" as="geometry" />
        </mxCell>
        <mxCell id="R9tuTI-LuhKUseB_a6Fk-43" value="No" style="ellipse;whiteSpace=wrap;html=1;fillColor=#dae8fc;strokeColor=#6c8ebf;" parent="1" vertex="1">
          <mxGeometry x="390" y="610" width="60" height="40" as="geometry" />
        </mxCell>
        <mxCell id="R9tuTI-LuhKUseB_a6Fk-51" style="edgeStyle=orthogonalEdgeStyle;rounded=0;orthogonalLoop=1;jettySize=auto;html=1;exitX=0.5;exitY=1;exitDx=0;exitDy=0;entryX=0.5;entryY=0;entryDx=0;entryDy=0;" parent="1" source="R9tuTI-LuhKUseB_a6Fk-48" target="R9tuTI-LuhKUseB_a6Fk-50" edge="1">
          <mxGeometry relative="1" as="geometry" />
        </mxCell>
        <mxCell id="R9tuTI-LuhKUseB_a6Fk-48" value="Close Task" style="rounded=1;whiteSpace=wrap;html=1;fillColor=#dae8fc;strokeColor=#6c8ebf;align=center;" parent="1" vertex="1">
          <mxGeometry x="270" y="610" width="80" height="40" as="geometry" />
        </mxCell>
        <mxCell id="R9tuTI-LuhKUseB_a6Fk-50" value="ServiceNow" style="rounded=1;whiteSpace=wrap;html=1;fillColor=#f8cecc;strokeColor=#b85450;" parent="1" vertex="1">
          <mxGeometry x="250" y="690" width="120" height="60" as="geometry" />
        </mxCell>
      </root>
    </mxGraphModel>
  </diagram>
</mxfile>
